<svg width="120" height="120" xmlns="http://www.w3.org/2000/svg" fill="none">
 <g>
  <title>Layer 1</title>
  <g stroke="null" stroke-width="0" id="svg_5">
   <path stroke="null" fill-rule="evenodd" clip-rule="evenodd" d="m26.65108,3.62529c22.10756,-3.5004 44.59031,-3.5004 66.69805,0c11.80312,2.94771 20.9835,11.97505 23.98125,23.5816c3.5595,21.7391 3.5595,43.84714 0,65.58643c-2.99775,11.60641 -12.17812,20.63377 -23.98125,23.58156c-22.10775,3.50017 -44.59049,3.50017 -66.69805,0c-11.80327,-2.94779 -20.98361,-11.97516 -23.98128,-23.58156c-3.55972,-21.73929 -3.55972,-43.84732 0,-65.58643c2.99767,-11.60655 12.17801,-20.63388 23.98128,-23.5816z" fill="#066FD1" id="svg_2"/>
   <path stroke="null" d="m67.05901,34.46732l5.62387,-9.1731l26.1405,25.72636l-9.34687,5.50876l-22.4175,-22.06202z" fill="white" id="svg_3"/>
   <path stroke="null" d="m37.21003,45.9971l29.30223,-3.35009l14.66437,13.49514l-3.65325,26.87192l-35.93474,7.95947c-2.77987,0.59774 -5.70472,0.16188 -8.13532,-1.21171l19.66432,-18.05732c3.41587,1.50007 7.51312,0.52436 9.70087,-2.31022c2.18812,-2.83458 1.83,-6.70277 -0.84787,-9.15864c-2.6775,-2.45551 -6.8955,-2.78406 -9.98662,-0.77732c-3.09112,2.00637 -4.155,5.76393 -2.51925,8.89609l-19.66451,18.03335c-1.47352,-2.22909 -1.92964,-4.90106 -1.26952,-7.43658l8.6793,-32.95408z" fill="white" id="svg_4"/>
  </g>
 </g>

</svg>